<?xml version="1.0" encoding="UTF-8" standalone="no"?>
<!-- Created with Inkscape (http://www.inkscape.org/) -->

<svg
   xmlns:dc="http://purl.org/dc/elements/1.1/"
   xmlns:cc="http://creativecommons.org/ns#"
   xmlns:rdf="http://www.w3.org/1999/02/22-rdf-syntax-ns#"
   xmlns:svg="http://www.w3.org/2000/svg"
   xmlns="http://www.w3.org/2000/svg"
   xmlns:sodipodi="http://sodipodi.sourceforge.net/DTD/sodipodi-0.dtd"
   xmlns:inkscape="http://www.inkscape.org/namespaces/inkscape"
   width="87.405418mm"
   height="80.996353mm"
   viewBox="0 0 309.70424 286.99495"
   id="svg2"
   version="1.1"
   inkscape:version="0.91 r13725"
   sodipodi:docname="chow.svg"
   inkscape:export-filename="/Users/foo/eating/chow.png"
   inkscape:export-xdpi="300"
   inkscape:export-ydpi="300">
  <defs
     id="defs4" />
  <sodipodi:namedview
     id="base"
     pagecolor="#ffffff"
     bordercolor="#666666"
     borderopacity="1.0"
     inkscape:pageopacity="0.0"
     inkscape:pageshadow="2"
     inkscape:zoom="1.0509689"
     inkscape:cx="270.67879"
     inkscape:cy="39.0499"
     inkscape:document-units="px"
     inkscape:current-layer="layer1"
     showgrid="false"
     inkscape:window-width="1276"
     inkscape:window-height="755"
     inkscape:window-x="2"
     inkscape:window-y="0"
     inkscape:window-maximized="0"
     showguides="false"
     fit-margin-top="0"
     fit-margin-left="0"
     fit-margin-right="0"
     fit-margin-bottom="0" />
  <metadata
     id="metadata7">
    <rdf:RDF>
      <cc:Work
         rdf:about="">
        <dc:format>image/svg+xml</dc:format>
        <dc:type
           rdf:resource="http://purl.org/dc/dcmitype/StillImage" />
        <dc:title></dc:title>
      </cc:Work>
    </rdf:RDF>
  </metadata>
  <g
     inkscape:label="Layer 1"
     inkscape:groupmode="layer"
     id="layer1"
     transform="translate(-148.13216,-150.20331)">
    <path
       style="fill:#ffffff;fill-opacity:1;fill-rule:evenodd;stroke:#000000;stroke-width:5;stroke-linecap:butt;stroke-linejoin:miter;stroke-miterlimit:4;stroke-dasharray:none;stroke-opacity:1"
       d="m 299.51023,157.36705 c 86.82826,-3.85919 130.18847,40.75802 129.8046,102.53048 -0.35085,56.45934 -39.01849,92.14233 -127.7843,92.42896 -59.94823,0.19357 -114.23934,-15.24403 -123.74368,-79.80205 -6.90644,-46.91179 12.37951,-110.29747 121.72338,-115.15739 z"
       id="path4147"
       inkscape:connector-curvature="0"
       sodipodi:nodetypes="sssss" />
    <path
       style="fill:#000000;fill-opacity:1;fill-rule:evenodd;stroke:#000000;stroke-width:1px;stroke-linecap:butt;stroke-linejoin:miter;stroke-opacity:1"
       d="m 285.22016,285.7177 c 2.58113,-12.73778 37.11842,-11.53668 36.36549,-0.32651 -0.48291,7.18987 -10.82782,12.76681 -17.88687,12.77485 -7.20503,0.008 -19.87848,-5.54007 -18.47862,-12.44834 z"
       id="path4149"
       inkscape:connector-curvature="0"
       sodipodi:nodetypes="ssss" />
    <path
       style="fill:#000000;fill-opacity:1;fill-rule:evenodd;stroke:#000000;stroke-width:1px;stroke-linecap:butt;stroke-linejoin:miter;stroke-opacity:1"
       d="m 180.8173,224.5422 c -29.32417,12.13064 -42.23508,-28.69793 -23.2335,-52.02286 18.14424,-22.27253 53.91464,-22.74744 53.03301,9.59644 -8.28516,8.40371 -23.98282,28.59065 -29.79951,42.42642 z"
       id="path4151"
       inkscape:connector-curvature="0"
       sodipodi:nodetypes="cscc" />
    <path
       style="fill:#000000;fill-opacity:1;fill-rule:evenodd;stroke:#000000;stroke-width:1px;stroke-linecap:butt;stroke-linejoin:miter;stroke-opacity:1"
       d="m 392.44426,178.58025 c -10.12418,-20.88112 24.65956,-44.09407 53.53809,-12.12183 28.76056,31.84163 -3.29844,63.67025 -27.27412,44.44671 -7.80915,-15.35952 -9.38269,-18.26138 -26.26397,-32.32488 z"
       id="path4153"
       inkscape:connector-curvature="0"
       sodipodi:nodetypes="cscc" />
    <path
       style="fill:#ffffff;fill-opacity:1;fill-rule:evenodd;stroke:#000000;stroke-width:5;stroke-linecap:butt;stroke-linejoin:miter;stroke-miterlimit:4;stroke-dasharray:none;stroke-opacity:1"
       d="m 228.29448,340.70974 c 7.3092,34.18958 -8.44804,79.51469 72.2259,78.28682 81.30391,1.95205 78.54138,-39.30941 77.27667,-79.29698 -50.23056,16.46462 -100.61657,14.12588 -149.50257,1.01016 z"
       id="path4155"
       inkscape:connector-curvature="0"
       sodipodi:nodetypes="cccc" />
    <path
       style="fill:#000000;fill-opacity:1;fill-rule:evenodd;stroke:#000000;stroke-width:5;stroke-linecap:butt;stroke-linejoin:miter;stroke-miterlimit:4;stroke-dasharray:none;stroke-opacity:1"
       d="m 235.09768,388.60269 c 6.67386,24.19825 10.54141,47.29012 26.02675,46.05123 16.03478,-1.28284 14.20708,-9.13092 14.20079,-16.99402 -20.4477,-1.22166 -33.24481,-11.67759 -40.22754,-29.05721 z"
       id="path4157"
       inkscape:connector-curvature="0"
       sodipodi:nodetypes="cscc" />
    <path
       style="opacity:1;fill:#000000;fill-opacity:1;fill-rule:evenodd;stroke:#000000;stroke-width:1px;stroke-linecap:butt;stroke-linejoin:miter;stroke-opacity:1"
       d="m 261.12443,229.59296 c -18.8226,-14.51202 -53.28734,18.37425 -55.55839,41.41625 -2.32224,23.56148 15.96543,32.84154 33.33503,29.29442 19.63187,-4.00911 41.79,-55.62501 22.22336,-70.71067 z"
       id="path4169"
       inkscape:connector-curvature="0"
       sodipodi:nodetypes="ssss" />
    <path
       style="opacity:1;fill:#000000;fill-opacity:1;fill-rule:evenodd;stroke:#000000;stroke-width:1px;stroke-linecap:butt;stroke-linejoin:miter;stroke-opacity:1"
       d="m 347.49248,228.07773 c 16.93599,-10.38204 42.376,12.92049 51.0127,30.80965 15.04506,31.16277 -18.33827,60.78057 -40.91118,35.35534 -16.05258,-18.08098 -28.0983,-55.13266 -10.10152,-66.16499 z"
       id="path4171"
       inkscape:connector-curvature="0"
       sodipodi:nodetypes="ssss" />
    <path
       style="opacity:1;fill:#ffffff;fill-opacity:1;fill-rule:evenodd;stroke:none;stroke-width:5;stroke-linecap:round;stroke-linejoin:round;stroke-miterlimit:4;stroke-dasharray:none;stroke-dashoffset:0;stroke-opacity:1"
       id="path4175"
       sodipodi:type="arc"
       sodipodi:cx="359.10922"
       sodipodi:cy="251.8163"
       sodipodi:rx="3.5355339"
       sodipodi:ry="6.0609155"
       sodipodi:start="0"
       sodipodi:end="6.2770767"
       sodipodi:open="true"
       d="m 362.64476,251.8163 a 3.5355339,6.0609155 0 0 1 -3.53014,6.06091 3.5355339,6.0609155 0 0 1 -3.54092,-6.0424 3.5355339,6.0609155 0 0 1 3.51932,-6.07936 3.5355339,6.0609155 0 0 1 3.55167,6.02383" />
    <path
       style="opacity:1;fill:#ffffff;fill-opacity:1;fill-rule:evenodd;stroke:none;stroke-width:5;stroke-linecap:round;stroke-linejoin:round;stroke-miterlimit:4;stroke-dasharray:none;stroke-dashoffset:0;stroke-opacity:1"
       id="path4175-1"
       sodipodi:type="arc"
       sodipodi:cx="247.99245"
       sodipodi:cy="253.33156"
       sodipodi:rx="3.5355339"
       sodipodi:ry="6.0609155"
       sodipodi:start="0"
       sodipodi:end="6.2770767"
       sodipodi:open="true"
       d="m 251.52798,253.33156 a 3.5355339,6.0609155 0 0 1 -3.53013,6.06091 3.5355339,6.0609155 0 0 1 -3.54092,-6.0424 3.5355339,6.0609155 0 0 1 3.51932,-6.07936 3.5355339,6.0609155 0 0 1 3.55166,6.02382" />
    <path
       style="fill:#000000;fill-opacity:1;fill-rule:evenodd;stroke:#000000;stroke-width:5;stroke-linecap:butt;stroke-linejoin:miter;stroke-miterlimit:4;stroke-dasharray:none;stroke-opacity:1"
       d="m 374.45411,385.61295 c -6.67386,24.19825 -9.38069,47.20083 -24.86603,45.96194 -16.03478,-1.28284 -14.65351,-6.98806 -14.64722,-14.85116 20.4477,-1.22166 32.53052,-13.73116 39.51325,-31.11078 z"
       id="path4157-8"
       inkscape:connector-curvature="0"
       sodipodi:nodetypes="cscc" />
    <path
       style="opacity:1;fill:#d10000;fill-opacity:1;fill-rule:evenodd;stroke:#000000;stroke-width:5;stroke-linecap:round;stroke-linejoin:round;stroke-miterlimit:4;stroke-dasharray:none;stroke-dashoffset:0;stroke-opacity:1"
       id="path4344"
       sodipodi:type="arc"
       sodipodi:cx="304.53079"
       sodipodi:cy="320.15314"
       sodipodi:rx="19.445436"
       sodipodi:ry="12.374369"
       sodipodi:start="0"
       sodipodi:end="6.2773035"
       sodipodi:open="true"
       d="m 323.97623,320.15314 a 19.445436,12.374369 0 0 1 -19.41684,12.37435 19.445436,12.374369 0 0 1 -19.47395,-12.33796 19.445436,12.374369 0 0 1 19.35957,-12.41064 19.445436,12.374369 0 0 1 19.53088,12.30146" />
    <g
       id="g4312"
       transform="matrix(0.67102928,0,0,0.67102928,-9.006669,78.372524)">
      <path
         inkscape:connector-curvature="0"
         id="path4178-1"
         d="m 466.47923,357.72007 c -37.04185,0.16555 -66.94894,29.66014 -66.83594,65.91407 0.11304,36.25335 30.20254,65.56852 67.24414,65.51367 37.04164,-0.055 67.04027,-29.45933 67.04101,-65.71289 l 0,-0.40235 c -0.22609,-36.25326 -30.40753,-65.47859 -67.44921,-65.3125 z m 0.30078,45.375 c 11.03397,-0.049 20.02455,8.52815 20.0918,19.16797 l -2.9805,0.11719 c 8.2e-4,10.63999 -9.12099,16.65529 -17.36081,16.67918 -7.68091,0.0223 -16.08552,-5.97876 -16.11935,-16.61863 -0.0344,-10.64013 5.33471,-19.29692 16.36886,-19.34571 z"
         style="opacity:1;fill:#c6b267;fill-opacity:1;fill-rule:evenodd;stroke:none;stroke-width:5;stroke-linecap:round;stroke-linejoin:round;stroke-miterlimit:4;stroke-dasharray:none;stroke-dashoffset:0;stroke-opacity:1"
         sodipodi:nodetypes="cssccccccscc" />
      <path
         inkscape:connector-curvature="0"
         id="path4178-1-0"
         d="m 464.043,371.45707 c -32.16323,0.75741 -59.07803,36.56307 -47.86523,67.47656 9.64993,30.65098 50.41061,46.8295 77.81445,29.09961 22.83406,-12.78415 34.2865,-44.73142 20.3711,-67.94141 -9.54207,-18.15834 -29.76048,-29.896 -50.32032,-28.63476 z m 2.24414,17.10937 c 25.31155,-1.91364 44.76203,31.32747 29.54102,52.0293 -13.31115,22.24143 -52.52119,18.36818 -60.70899,-6.44727 -8.64281,-20.4804 9.49268,-45.39745 31.16797,-45.58203 z"
         style="opacity:0.38000039;fill:#e1d7af;fill-opacity:1;fill-rule:evenodd;stroke:none;stroke-width:5;stroke-linecap:round;stroke-linejoin:round;stroke-miterlimit:4;stroke-dasharray:none;stroke-dashoffset:0;stroke-opacity:1" />
      <path
         sodipodi:nodetypes="cccccccccccc"
         inkscape:connector-curvature="0"
         id="path4178"
         d="m 466.20508,356.29492 c -31.99687,-0.3406 -62.36811,24.0412 -67.62792,55.83885 -0.22611,5.78915 -4.10426,15.09568 3.32714,17.65725 5.42321,3.90548 12.00086,1.78057 17.00586,-1.6543 6.67341,-3.47411 10.10692,7.73806 17.03711,5.29883 4.76085,-1.72987 15.07872,-4.11838 16.19825,-9.41071 0.62218,-19.71458 28.54385,-18.34429 29.16719,-0.195 1.75454,4.16205 8.96123,13.73849 26.39627,9.26782 3.83792,-3.19923 9.01486,-6.80174 13.87696,-3.33204 4.62722,1.99214 6.99623,6.63023 10.00586,10.18946 5.08408,-1.88022 4.33178,-9.68407 4.15039,-14.80664 -2.76815,-44.72515 -30.77035,-68.46944 -69.53711,-68.85352 z"
         style="opacity:1;fill:#645726;fill-opacity:1;fill-rule:evenodd;stroke:none;stroke-width:5;stroke-linecap:round;stroke-linejoin:round;stroke-miterlimit:4;stroke-dasharray:none;stroke-dashoffset:0;stroke-opacity:1" />
      <path
         sodipodi:nodetypes="cc"
         inkscape:connector-curvature="0"
         id="path4238"
         d="m 448.30571,380.96431 5.30329,6.36396"
         style="fill:none;fill-rule:evenodd;stroke:#ffff38;stroke-width:5;stroke-linecap:round;stroke-linejoin:miter;stroke-miterlimit:4;stroke-dasharray:none;stroke-opacity:1" />
      <path
         sodipodi:nodetypes="cc"
         inkscape:connector-curvature="0"
         id="path4238-0"
         d="m 438.58298,405.71305 -5.30329,6.36396"
         style="fill:none;fill-rule:evenodd;stroke:#ff3838;stroke-width:5;stroke-linecap:round;stroke-linejoin:miter;stroke-miterlimit:4;stroke-dasharray:none;stroke-opacity:1" />
      <path
         sodipodi:nodetypes="cc"
         inkscape:connector-curvature="0"
         id="path4238-8"
         d="m 415.24846,396.16711 5.30329,6.36396"
         style="fill:none;fill-rule:evenodd;stroke:#ffff38;stroke-width:5;stroke-linecap:round;stroke-linejoin:miter;stroke-miterlimit:4;stroke-dasharray:none;stroke-opacity:1" />
      <path
         sodipodi:nodetypes="cc"
         inkscape:connector-curvature="0"
         id="path4238-5"
         d="m 473.58477,387.32828 5.30329,6.36396"
         style="fill:none;fill-rule:evenodd;stroke:#ffff38;stroke-width:5;stroke-linecap:round;stroke-linejoin:miter;stroke-miterlimit:4;stroke-dasharray:none;stroke-opacity:1" />
      <path
         sodipodi:nodetypes="cc"
         inkscape:connector-curvature="0"
         id="path4238-6"
         d="m 495.85864,400.0562 5.30329,6.36396"
         style="fill:none;fill-rule:evenodd;stroke:#ffff38;stroke-width:5;stroke-linecap:round;stroke-linejoin:miter;stroke-miterlimit:4;stroke-dasharray:none;stroke-opacity:1" />
      <path
         sodipodi:nodetypes="cc"
         inkscape:connector-curvature="0"
         id="path4238-2"
         d="m 490.90889,371.77192 5.30329,6.36396"
         style="fill:none;fill-rule:evenodd;stroke:#ff3838;stroke-width:5;stroke-linecap:round;stroke-linejoin:miter;stroke-miterlimit:4;stroke-dasharray:none;stroke-opacity:1" />
      <path
         sodipodi:nodetypes="cc"
         inkscape:connector-curvature="0"
         id="path4238-0-5"
         d="m 433.63324,376.01457 -5.30329,6.36396"
         style="fill:none;fill-rule:evenodd;stroke:#ff3838;stroke-width:5;stroke-linecap:round;stroke-linejoin:miter;stroke-miterlimit:4;stroke-dasharray:none;stroke-opacity:1" />
      <path
         sodipodi:nodetypes="cc"
         inkscape:connector-curvature="0"
         id="path4238-0-3"
         d="m 517.07183,389.4496 -5.30329,6.36396"
         style="fill:none;fill-rule:evenodd;stroke:#ffff38;stroke-width:5;stroke-linecap:round;stroke-linejoin:miter;stroke-miterlimit:4;stroke-dasharray:none;stroke-opacity:1" />
      <path
         sodipodi:nodetypes="cc"
         inkscape:connector-curvature="0"
         id="path4238-0-6"
         d="m 514.59696,412.78412 -5.30329,6.36396"
         style="fill:none;fill-rule:evenodd;stroke:#ff3838;stroke-width:5;stroke-linecap:round;stroke-linejoin:miter;stroke-miterlimit:4;stroke-dasharray:none;stroke-opacity:1" />
      <path
         sodipodi:nodetypes="cc"
         inkscape:connector-curvature="0"
         id="path4238-0-2"
         d="m 475.70608,364.3473 -5.30329,6.36396"
         style="fill:none;fill-rule:evenodd;stroke:#ffff38;stroke-width:5;stroke-linecap:round;stroke-linejoin:miter;stroke-miterlimit:4;stroke-dasharray:none;stroke-opacity:1" />
    </g>
    <path
       style="fill:#000000;fill-opacity:1;fill-rule:evenodd;stroke:#000000;stroke-width:1px;stroke-linecap:butt;stroke-linejoin:miter;stroke-opacity:1"
       d="m 231.20353,343.55198 c 0,0 38.62251,5.54608 38.74973,21.78779 0.11349,14.48655 -35.77223,4.83431 -35.77223,4.83431 z"
       id="path4154-6"
       inkscape:connector-curvature="0"
       sodipodi:nodetypes="cscc" />
    <path
       style="fill:#000000;fill-opacity:1;fill-rule:evenodd;stroke:#000000;stroke-width:1px;stroke-linecap:butt;stroke-linejoin:miter;stroke-opacity:1"
       d="m 378.12446,339.5929 c 0,0 -38.62251,5.54608 -38.74973,21.78779 -0.11349,14.48655 35.77223,4.83431 35.77223,4.83431 z"
       id="path4154-6-4"
       inkscape:connector-curvature="0"
       sodipodi:nodetypes="cscc" />
    <path
       style="fill:none;fill-rule:evenodd;stroke:#000000;stroke-width:5;stroke-linecap:round;stroke-linejoin:round;stroke-miterlimit:4;stroke-dasharray:none;stroke-opacity:1"
       d="m 304.05592,305.65744 -0.70711,-16.97056"
       id="path4346"
       inkscape:connector-curvature="0" />
  </g>
</svg>
