<?xml version="1.0" encoding="UTF-8" standalone="no"?>
<!-- Created with Inkscape (http://www.inkscape.org/) -->

<svg
   xmlns:dc="http://purl.org/dc/elements/1.1/"
   xmlns:cc="http://creativecommons.org/ns#"
   xmlns:rdf="http://www.w3.org/1999/02/22-rdf-syntax-ns#"
   xmlns:svg="http://www.w3.org/2000/svg"
   xmlns="http://www.w3.org/2000/svg"
   xmlns:sodipodi="http://sodipodi.sourceforge.net/DTD/sodipodi-0.dtd"
   xmlns:inkscape="http://www.inkscape.org/namespaces/inkscape"
   width="87.405418mm"
   height="80.996353mm"
   viewBox="0 0 309.70424 286.99495"
   id="svg2"
   version="1.1"
   inkscape:version="0.91 r13725"
   sodipodi:docname="unchow.svg"
   inkscape:export-filename="/Users/foo/eating/unchow.png"
   inkscape:export-xdpi="300"
   inkscape:export-ydpi="300">
  <defs
     id="defs4" />
  <sodipodi:namedview
     id="base"
     pagecolor="#ffffff"
     bordercolor="#666666"
     borderopacity="1.0"
     inkscape:pageopacity="0.0"
     inkscape:pageshadow="2"
     inkscape:zoom="0.9899495"
     inkscape:cx="164.50399"
     inkscape:cy="138.407"
     inkscape:document-units="px"
     inkscape:current-layer="layer1"
     showgrid="false"
     inkscape:window-width="1276"
     inkscape:window-height="755"
     inkscape:window-x="4"
     inkscape:window-y="1"
     inkscape:window-maximized="1"
     fit-margin-top="0"
     fit-margin-left="0"
     fit-margin-right="0"
     fit-margin-bottom="0" />
  <metadata
     id="metadata7">
    <rdf:RDF>
      <cc:Work
         rdf:about="">
        <dc:format>image/svg+xml</dc:format>
        <dc:type
           rdf:resource="http://purl.org/dc/dcmitype/StillImage" />
        <dc:title></dc:title>
      </cc:Work>
    </rdf:RDF>
  </metadata>
  <g
     inkscape:label="Layer 1"
     inkscape:groupmode="layer"
     id="layer1"
     transform="translate(-148.13216,-150.20331)">
    <path
       style="fill:#ffffff;fill-opacity:1;fill-rule:evenodd;stroke:#000000;stroke-width:5;stroke-linecap:butt;stroke-linejoin:miter;stroke-miterlimit:4;stroke-dasharray:none;stroke-opacity:1"
       d="m 299.51023,157.36705 c 86.82826,-3.85919 130.18847,40.75802 129.8046,102.53048 -0.35085,56.45934 -39.01849,92.14233 -127.7843,92.42896 -59.94823,0.19357 -114.23934,-15.24403 -123.74368,-79.80205 -6.90644,-46.91179 12.37951,-110.29747 121.72338,-115.15739 z"
       id="path4147"
       inkscape:connector-curvature="0"
       sodipodi:nodetypes="sssss" />
    <path
       style="fill:#000000;fill-opacity:1;fill-rule:evenodd;stroke:#000000;stroke-width:1px;stroke-linecap:butt;stroke-linejoin:miter;stroke-opacity:1"
       d="m 285.22016,285.7177 c 2.58113,-12.73778 37.11842,-11.53668 36.36549,-0.32651 -0.48291,7.18987 -10.82782,12.76681 -17.88687,12.77485 -7.20503,0.008 -19.87848,-5.54007 -18.47862,-12.44834 z"
       id="path4149"
       inkscape:connector-curvature="0"
       sodipodi:nodetypes="ssss" />
    <path
       style="fill:#000000;fill-opacity:1;fill-rule:evenodd;stroke:#000000;stroke-width:1px;stroke-linecap:butt;stroke-linejoin:miter;stroke-opacity:1"
       d="m 180.8173,224.5422 c -29.32417,12.13064 -42.23508,-28.69793 -23.2335,-52.02286 18.14424,-22.27253 53.91464,-22.74744 53.03301,9.59644 -8.28516,8.40371 -23.98282,28.59065 -29.79951,42.42642 z"
       id="path4151"
       inkscape:connector-curvature="0"
       sodipodi:nodetypes="cscc" />
    <path
       style="fill:#000000;fill-opacity:1;fill-rule:evenodd;stroke:#000000;stroke-width:1px;stroke-linecap:butt;stroke-linejoin:miter;stroke-opacity:1"
       d="m 392.44426,178.58025 c -10.12418,-20.88112 24.65956,-44.09407 53.53809,-12.12183 28.76056,31.84163 -3.29844,63.67025 -27.27412,44.44671 -7.80915,-15.35952 -9.38269,-18.26138 -26.26397,-32.32488 z"
       id="path4153"
       inkscape:connector-curvature="0"
       sodipodi:nodetypes="cscc" />
    <path
       style="fill:#ffffff;fill-opacity:1;fill-rule:evenodd;stroke:#000000;stroke-width:5;stroke-linecap:butt;stroke-linejoin:miter;stroke-miterlimit:4;stroke-dasharray:none;stroke-opacity:1"
       d="m 228.29448,340.70974 c 7.3092,34.18958 -8.44804,79.51469 72.2259,78.28682 81.30391,1.95205 78.54138,-39.30941 77.27667,-79.29698 -50.23056,16.46462 -100.61657,14.12588 -149.50257,1.01016 z"
       id="path4155"
       inkscape:connector-curvature="0"
       sodipodi:nodetypes="cccc" />
    <path
       style="fill:#000000;fill-opacity:1;fill-rule:evenodd;stroke:#000000;stroke-width:5;stroke-linecap:butt;stroke-linejoin:miter;stroke-miterlimit:4;stroke-dasharray:none;stroke-opacity:1"
       d="m 235.09768,388.60269 c 6.67386,24.19825 10.54141,47.29012 26.02675,46.05123 16.03478,-1.28284 14.20708,-9.13092 14.20079,-16.99402 -20.4477,-1.22166 -33.24481,-11.67759 -40.22754,-29.05721 z"
       id="path4157"
       inkscape:connector-curvature="0"
       sodipodi:nodetypes="cscc" />
    <path
       style="opacity:1;fill:#000000;fill-opacity:1;fill-rule:evenodd;stroke:#000000;stroke-width:1px;stroke-linecap:butt;stroke-linejoin:miter;stroke-opacity:1"
       d="m 261.12443,229.59296 c -18.8226,-14.51202 -53.28734,18.37425 -55.55839,41.41625 -2.32224,23.56148 15.96543,32.84154 33.33503,29.29442 19.63187,-4.00911 41.79,-55.62501 22.22336,-70.71067 z"
       id="path4169"
       inkscape:connector-curvature="0"
       sodipodi:nodetypes="ssss" />
    <path
       style="opacity:1;fill:#000000;fill-opacity:1;fill-rule:evenodd;stroke:#000000;stroke-width:1px;stroke-linecap:butt;stroke-linejoin:miter;stroke-opacity:1"
       d="m 347.49248,228.07773 c 16.93599,-10.38204 42.376,12.92049 51.0127,30.80965 15.04506,31.16277 -18.33827,60.78057 -40.91118,35.35534 -16.05258,-18.08098 -28.0983,-55.13266 -10.10152,-66.16499 z"
       id="path4171"
       inkscape:connector-curvature="0"
       sodipodi:nodetypes="ssss" />
    <path
       style="opacity:1;fill:#ffffff;fill-opacity:1;fill-rule:evenodd;stroke:none;stroke-width:5;stroke-linecap:round;stroke-linejoin:round;stroke-miterlimit:4;stroke-dasharray:none;stroke-dashoffset:0;stroke-opacity:1"
       id="path4175"
       sodipodi:type="arc"
       sodipodi:cx="359.10922"
       sodipodi:cy="251.8163"
       sodipodi:rx="3.5355339"
       sodipodi:ry="6.0609155"
       sodipodi:start="0"
       sodipodi:end="6.2770767"
       sodipodi:open="true"
       d="m 362.64476,251.8163 a 3.5355339,6.0609155 0 0 1 -3.53014,6.06091 3.5355339,6.0609155 0 0 1 -3.54092,-6.0424 3.5355339,6.0609155 0 0 1 3.51932,-6.07936 3.5355339,6.0609155 0 0 1 3.55167,6.02383" />
    <path
       style="opacity:1;fill:#ffffff;fill-opacity:1;fill-rule:evenodd;stroke:none;stroke-width:5;stroke-linecap:round;stroke-linejoin:round;stroke-miterlimit:4;stroke-dasharray:none;stroke-dashoffset:0;stroke-opacity:1"
       id="path4175-1"
       sodipodi:type="arc"
       sodipodi:cx="247.99245"
       sodipodi:cy="253.33156"
       sodipodi:rx="3.5355339"
       sodipodi:ry="6.0609155"
       sodipodi:start="0"
       sodipodi:end="6.2770767"
       sodipodi:open="true"
       d="m 251.52798,253.33156 a 3.5355339,6.0609155 0 0 1 -3.53013,6.06091 3.5355339,6.0609155 0 0 1 -3.54092,-6.0424 3.5355339,6.0609155 0 0 1 3.51932,-6.07936 3.5355339,6.0609155 0 0 1 3.55166,6.02382" />
    <path
       style="fill:#000000;fill-opacity:1;fill-rule:evenodd;stroke:#000000;stroke-width:1px;stroke-linecap:butt;stroke-linejoin:miter;stroke-opacity:1"
       d="m 229.30463,341.21482 c 0,0 -30.57111,4.12264 -28.28427,20.20305 2.0397,14.34269 29.29442,6.56599 29.29442,6.56599 z"
       id="path4154"
       inkscape:connector-curvature="0"
       sodipodi:nodetypes="cscc" />
    <path
       style="fill:#000000;fill-opacity:1;fill-rule:evenodd;stroke:#000000;stroke-width:1px;stroke-linecap:butt;stroke-linejoin:miter;stroke-opacity:1"
       d="m 380.26929,339.94434 c 0,0 30.57111,4.12264 28.28427,20.20305 -2.0397,14.34269 -29.29442,6.56599 -29.29442,6.56599 z"
       id="path4154-6"
       inkscape:connector-curvature="0"
       sodipodi:nodetypes="cscc" />
    <path
       style="fill:#000000;fill-opacity:1;fill-rule:evenodd;stroke:#000000;stroke-width:5;stroke-linecap:butt;stroke-linejoin:miter;stroke-miterlimit:4;stroke-dasharray:none;stroke-opacity:1"
       d="m 374.45411,385.61295 c -6.67386,24.19825 -9.38069,47.20083 -24.86603,45.96194 -16.03478,-1.28284 -14.65351,-6.98806 -14.64722,-14.85116 20.4477,-1.22166 32.53052,-13.73116 39.51325,-31.11078 z"
       id="path4157-8"
       inkscape:connector-curvature="0"
       sodipodi:nodetypes="cscc" />
    <path
       style="fill:none;fill-rule:evenodd;stroke:#000000;stroke-width:5;stroke-linecap:butt;stroke-linejoin:round;stroke-miterlimit:4;stroke-dasharray:none;stroke-opacity:1"
       d="m 303.57144,296.64793 -0.35715,10"
       id="path4188"
       inkscape:connector-curvature="0" />
    <path
       style="fill:none;fill-rule:evenodd;stroke:#000000;stroke-width:5.07346249;stroke-linecap:round;stroke-linejoin:round;stroke-miterlimit:4;stroke-dasharray:none;stroke-opacity:1"
       d="m 290.3211,305.8116 c 4.92025,3.79002 7.86037,3.67005 13.20969,0.0615 4.73204,3.26928 7.20214,4.01106 12.00879,0.18454"
       id="path4192"
       inkscape:connector-curvature="0"
       sodipodi:nodetypes="ccc" />
  </g>
</svg>
