<?xml version="1.0" encoding="UTF-8" standalone="no"?>
<!-- Created with Inkscape (http://www.inkscape.org/) -->

<svg
   xmlns:dc="http://purl.org/dc/elements/1.1/"
   xmlns:cc="http://creativecommons.org/ns#"
   xmlns:rdf="http://www.w3.org/1999/02/22-rdf-syntax-ns#"
   xmlns:svg="http://www.w3.org/2000/svg"
   xmlns="http://www.w3.org/2000/svg"
   xmlns:sodipodi="http://sodipodi.sourceforge.net/DTD/sodipodi-0.dtd"
   xmlns:inkscape="http://www.inkscape.org/namespaces/inkscape"
   width="26.043642mm"
   height="25.160276mm"
   viewBox="0 0 92.280622 89.150585"
   id="svg2"
   version="1.1"
   inkscape:version="0.91 r13725"
   sodipodi:docname="donut.svg"
   inkscape:export-filename="/Users/foo/eating/chow.png"
   inkscape:export-xdpi="300"
   inkscape:export-ydpi="300">
  <defs
     id="defs4" />
  <sodipodi:namedview
     id="base"
     pagecolor="#ffffff"
     bordercolor="#666666"
     borderopacity="1.0"
     inkscape:pageopacity="0.0"
     inkscape:pageshadow="2"
     inkscape:zoom="2.9725889"
     inkscape:cx="3.0073671"
     inkscape:cy="79.593488"
     inkscape:document-units="px"
     inkscape:current-layer="layer1"
     showgrid="false"
     inkscape:window-width="1276"
     inkscape:window-height="755"
     inkscape:window-x="2"
     inkscape:window-y="0"
     inkscape:window-maximized="0"
     showguides="false"
     fit-margin-top="0"
     fit-margin-left="0"
     fit-margin-right="0"
     fit-margin-bottom="0" />
  <metadata
     id="metadata7">
    <rdf:RDF>
      <cc:Work
         rdf:about="">
        <dc:format>image/svg+xml</dc:format>
        <dc:type
           rdf:resource="http://purl.org/dc/dcmitype/StillImage" />
        <dc:title></dc:title>
      </cc:Work>
    </rdf:RDF>
  </metadata>
  <g
     inkscape:label="Layer 1"
     inkscape:groupmode="layer"
     id="layer1"
     transform="translate(-258.42116,-328.03283)">
    <g
       id="g4312"
       transform="matrix(0.67102928,0,0,0.67102928,-8.2227454,88.950856)"
       inkscape:export-xdpi="31.209999"
       inkscape:export-ydpi="31.209999">
      <path
         inkscape:connector-curvature="0"
         id="path4178-1"
         d="m 466.47923,357.72007 c -37.04185,0.16555 -66.94894,29.66014 -66.83594,65.91407 0.11304,36.25335 30.20254,65.56852 67.24414,65.51367 37.04164,-0.055 67.04027,-29.45933 67.04101,-65.71289 l 0,-0.40235 c -0.22609,-36.25326 -30.40753,-65.47859 -67.44921,-65.3125 z m 0.30078,45.375 c 11.03397,-0.049 20.02455,8.52815 20.0918,19.16797 l -2.9805,0.11719 c 8.2e-4,10.63999 -9.12099,16.65529 -17.36081,16.67918 -7.68091,0.0223 -16.08552,-5.97876 -16.11935,-16.61863 -0.0344,-10.64013 5.33471,-19.29692 16.36886,-19.34571 z"
         style="opacity:1;fill:#c6b267;fill-opacity:1;fill-rule:evenodd;stroke:none;stroke-width:5;stroke-linecap:round;stroke-linejoin:round;stroke-miterlimit:4;stroke-dasharray:none;stroke-dashoffset:0;stroke-opacity:1"
         sodipodi:nodetypes="cssccccccscc" />
      <path
         inkscape:connector-curvature="0"
         id="path4178-1-0"
         d="m 464.043,371.45707 c -32.16323,0.75741 -59.07803,36.56307 -47.86523,67.47656 9.64993,30.65098 50.41061,46.8295 77.81445,29.09961 22.83406,-12.78415 34.2865,-44.73142 20.3711,-67.94141 -9.54207,-18.15834 -29.76048,-29.896 -50.32032,-28.63476 z m 2.24414,17.10937 c 25.31155,-1.91364 44.76203,31.32747 29.54102,52.0293 -13.31115,22.24143 -52.52119,18.36818 -60.70899,-6.44727 -8.64281,-20.4804 9.49268,-45.39745 31.16797,-45.58203 z"
         style="opacity:0.38000039;fill:#e1d7af;fill-opacity:1;fill-rule:evenodd;stroke:none;stroke-width:5;stroke-linecap:round;stroke-linejoin:round;stroke-miterlimit:4;stroke-dasharray:none;stroke-dashoffset:0;stroke-opacity:1" />
      <path
         sodipodi:nodetypes="ccccsccccacc"
         inkscape:connector-curvature="0"
         id="path4178"
         d="m 466.20508,356.29492 c -31.99687,-0.3406 -62.36811,24.0412 -67.62792,55.83885 -0.22611,5.78915 -4.10426,15.09568 3.32714,17.65725 5.42321,3.90548 12.00086,1.78057 17.00586,-1.6543 6.67341,-3.47411 13.50546,4.99197 19.2931,4.7975 5.51215,-0.18521 12.82273,-3.61705 13.94226,-8.90938 0.62218,-19.71458 29.29585,-17.84296 29.91919,0.30633 1.75454,4.16205 8.4599,8.47452 17.87365,8.76649 13.11253,-0.44191 15.54476,-12.47364 20.40686,-9.00394 4.62722,1.99214 6.42137,9.30554 10.71484,8.0625 3.43104,-0.99336 3.97729,-4.89841 3.7959,-10.02098 0.24504,-38.16701 -29.88412,-65.45624 -68.65088,-65.84032 z"
         style="opacity:1;fill:#645726;fill-opacity:1;fill-rule:evenodd;stroke:none;stroke-width:5;stroke-linecap:round;stroke-linejoin:round;stroke-miterlimit:4;stroke-dasharray:none;stroke-dashoffset:0;stroke-opacity:1" />
      <path
         sodipodi:nodetypes="cc"
         inkscape:connector-curvature="0"
         id="path4238"
         d="m 448.30571,380.96431 5.30329,6.36396"
         style="fill:none;fill-rule:evenodd;stroke:#ffff38;stroke-width:5;stroke-linecap:round;stroke-linejoin:miter;stroke-miterlimit:4;stroke-dasharray:none;stroke-opacity:1" />
      <path
         sodipodi:nodetypes="cc"
         inkscape:connector-curvature="0"
         id="path4238-0"
         d="m 438.58298,405.71305 -5.30329,6.36396"
         style="fill:none;fill-rule:evenodd;stroke:#ff3838;stroke-width:5;stroke-linecap:round;stroke-linejoin:miter;stroke-miterlimit:4;stroke-dasharray:none;stroke-opacity:1" />
      <path
         sodipodi:nodetypes="cc"
         inkscape:connector-curvature="0"
         id="path4238-8"
         d="m 415.24846,396.16711 5.30329,6.36396"
         style="fill:none;fill-rule:evenodd;stroke:#ffff38;stroke-width:5;stroke-linecap:round;stroke-linejoin:miter;stroke-miterlimit:4;stroke-dasharray:none;stroke-opacity:1" />
      <path
         sodipodi:nodetypes="cc"
         inkscape:connector-curvature="0"
         id="path4238-5"
         d="m 473.58477,387.32828 5.30329,6.36396"
         style="fill:none;fill-rule:evenodd;stroke:#ffff38;stroke-width:5;stroke-linecap:round;stroke-linejoin:miter;stroke-miterlimit:4;stroke-dasharray:none;stroke-opacity:1" />
      <path
         sodipodi:nodetypes="cc"
         inkscape:connector-curvature="0"
         id="path4238-6"
         d="m 495.85864,400.0562 5.30329,6.36396"
         style="fill:none;fill-rule:evenodd;stroke:#ffff38;stroke-width:5;stroke-linecap:round;stroke-linejoin:miter;stroke-miterlimit:4;stroke-dasharray:none;stroke-opacity:1" />
      <path
         sodipodi:nodetypes="cc"
         inkscape:connector-curvature="0"
         id="path4238-2"
         d="m 490.90889,371.77192 5.30329,6.36396"
         style="fill:none;fill-rule:evenodd;stroke:#ff3838;stroke-width:5;stroke-linecap:round;stroke-linejoin:miter;stroke-miterlimit:4;stroke-dasharray:none;stroke-opacity:1" />
      <path
         sodipodi:nodetypes="cc"
         inkscape:connector-curvature="0"
         id="path4238-0-5"
         d="m 433.63324,376.01457 -5.30329,6.36396"
         style="fill:none;fill-rule:evenodd;stroke:#ff3838;stroke-width:5;stroke-linecap:round;stroke-linejoin:miter;stroke-miterlimit:4;stroke-dasharray:none;stroke-opacity:1" />
      <path
         sodipodi:nodetypes="cc"
         inkscape:connector-curvature="0"
         id="path4238-0-3"
         d="m 517.07183,389.4496 -5.30329,6.36396"
         style="fill:none;fill-rule:evenodd;stroke:#ffff38;stroke-width:5;stroke-linecap:round;stroke-linejoin:miter;stroke-miterlimit:4;stroke-dasharray:none;stroke-opacity:1" />
      <path
         sodipodi:nodetypes="cc"
         inkscape:connector-curvature="0"
         id="path4238-0-6"
         d="m 514.59696,412.78412 -5.30329,6.36396"
         style="fill:none;fill-rule:evenodd;stroke:#ff3838;stroke-width:5;stroke-linecap:round;stroke-linejoin:miter;stroke-miterlimit:4;stroke-dasharray:none;stroke-opacity:1" />
      <path
         sodipodi:nodetypes="cc"
         inkscape:connector-curvature="0"
         id="path4238-0-2"
         d="m 475.70608,364.3473 -5.30329,6.36396"
         style="fill:none;fill-rule:evenodd;stroke:#ffff38;stroke-width:5;stroke-linecap:round;stroke-linejoin:miter;stroke-miterlimit:4;stroke-dasharray:none;stroke-opacity:1" />
    </g>
  </g>
</svg>
